<svg
              xmlns="http://www.w3.org/2000/svg"
              viewBox="0 0 512.000000 512.000000"
              preserveAspectRatio="xMidYMid meet">

              <g transform="translate(0.000000,512.000000) scale(0.100000,-0.100000)"
                stroke="none">
                <path d="M2400 4444 c-277 -73 -477 -325 -482 -608 -1 -75 13 -103 72 -143 64
                            -44 157 -21 199 48 11 17 22 59 26 93 12 99 41 164 104 227 70 70 141 99 241
                            99 100 0 171 -29 241 -99 71 -72 101 -144 101 -249 -1 -60 -6 -84 -30 -135
                            -36 -76 -74 -115 -177 -182 -183 -118 -285 -303 -285 -515 l0 -78 -1087 -628
                            c-1021 -590 -1092 -633 -1159 -699 -79 -78 -125 -158 -149 -257 -66 -279 102
                            -558 384 -642 50 -14 253 -16 2164 -16 l2108 0 76 25 c142 48 254 147 317 278
                            128 268 30 554 -245 717 -52 31 -547 319 -1101 639 l-1008 584 0 62 c0 138 42
                            208 181 301 117 78 184 149 238 253 53 102 71 178 71 298 0 188 -54 318 -189
                            453 -98 98 -169 140 -287 170 -92 24 -242 26 -324 4z m1240 -2426 c580 -336
                            1070 -622 1087 -635 18 -13 44 -43 58 -67 70 -120 24 -276 -99 -332 l-53 -24
                            -2085 2 -2085 3 -49 30 c-30 19 -60 49 -79 79 -26 43 -30 59 -30 120 0 60 4
                            79 28 119 15 26 40 56 55 67 76 55 2169 1259 2182 1254 8 -3 489 -280 1070
                            -616z"/>
              </g>
            </svg>